<svg width="18" height="18" viewBox="0 0 18 18" fill="none" xmlns="http://www.w3.org/2000/svg">
<path d="M9.60253 4.73424C10.2796 4.73424 11.1283 4.27652 11.6337 3.66622C12.0914 3.11314 12.4252 2.34073 12.4252 1.56832C12.4252 1.46342 12.4156 1.35853 12.3966 1.27271C11.6432 1.30131 10.7373 1.77811 10.1938 2.41702C9.76464 2.90335 9.37367 3.66622 9.37367 4.44817C9.37367 4.5626 9.39274 4.67703 9.40228 4.71517C9.44996 4.72471 9.52624 4.73424 9.60253 4.73424ZM7.21855 16.2727C8.14353 16.2727 8.55358 15.6529 9.70743 15.6529C10.8803 15.6529 11.1378 16.2536 12.1677 16.2536C13.1785 16.2536 13.8555 15.3191 14.4945 14.4037C15.2097 13.3547 15.5053 12.3248 15.5243 12.2772C15.4576 12.2581 13.5218 11.4666 13.5218 9.24473C13.5218 7.31848 15.0475 6.45071 15.1334 6.38396C14.1226 4.9345 12.5873 4.89635 12.1677 4.89635C11.0329 4.89635 10.1079 5.58294 9.52624 5.58294C8.89687 5.58294 8.06725 4.9345 7.08505 4.9345C5.21601 4.9345 3.31836 6.47932 3.31836 9.39731C3.31836 11.2091 4.02402 13.1259 4.89179 14.3655C5.63559 15.4145 6.28403 16.2727 7.21855 16.2727Z" fill="black"/>
</svg>

